<svg width="91" height="28" viewBox="0 0 91 28" fill="none" xmlns="http://www.w3.org/2000/svg">
<path d="M6.12 23.176C6.12 23.776 6.288 24.28 6.624 24.688C6.96 25.096 7.32 25.3 7.704 25.3C8.088 25.3 8.64 25.12 9.36 24.76V6.94C9.36 6.052 9.264 5.416 9.072 5.032C8.904 4.648 8.52 4.456 7.92 4.456V3.34L15.3 0.243999L15.876 1.396C15.348 1.396 14.856 1.708 14.4 2.332C13.944 2.932 13.716 3.844 13.716 5.068V24.652C13.716 24.868 12.432 25.48 9.864 26.488C7.296 27.496 5.64 28 4.896 28C4.152 28 3.444 27.436 2.772 26.308C2.124 25.18 1.8 24.184 1.8 23.32V5.572C1.8 4.252 1.212 3.472 0.036 3.232V2.44L3.96 0.243999C4.488 0.459999 4.98 0.819999 5.436 1.324C5.892 1.804 6.12 2.26 6.12 2.692V23.176ZM26.1239 7.48C26.2439 7.48 26.5439 7.672 27.0239 8.056C27.5039 8.416 27.9839 8.932 28.4639 9.604C28.9439 10.252 29.1839 10.888 29.1839 11.512V17.56C29.1839 17.992 28.5479 18.52 27.2759 19.144C26.0039 19.768 24.7679 20.284 23.5679 20.692C22.3919 21.076 21.7559 21.268 21.6599 21.268C21.6599 23.116 22.4639 24.256 24.0719 24.688C24.8639 24.88 25.8119 24.976 26.9159 24.976V26.02C22.9799 27.34 20.8799 28 20.6159 28C19.8959 28 19.1639 27.496 18.4199 26.488C17.6759 25.456 17.3039 24.256 17.3039 22.888V10.792C17.3039 10.624 18.6719 10.036 21.4079 9.028C24.1439 7.996 25.7159 7.48 26.1239 7.48ZM24.8639 13.204C24.8639 12.532 24.7079 11.968 24.3959 11.512C24.0839 11.032 23.6879 10.792 23.2079 10.792C22.7279 10.792 22.1999 10.972 21.6239 11.332V19.648C23.7839 19.048 24.8639 17.752 24.8639 15.76V13.204ZM32.5969 25.552V13.348C32.5969 12.556 32.4289 11.872 32.0929 11.296C31.7569 10.72 31.3369 10.432 30.8329 10.432V9.64C31.0009 9.616 32.3089 8.884 34.7569 7.444C34.9249 7.492 35.1289 7.564 35.3689 7.66C35.6089 7.732 35.9209 7.96 36.3049 8.344C36.7129 8.728 36.9169 9.172 36.9169 9.676C37.0609 9.604 37.4689 9.376 38.1409 8.992C39.9169 7.984 40.9729 7.48 41.3089 7.48C42.0769 7.48 42.7969 7.984 43.4689 8.992C44.1409 10 44.4769 10.924 44.4769 11.764V22.672C44.4769 23.992 45.0649 24.772 46.2409 25.012V25.804L42.3169 28C41.7889 27.784 41.2969 27.436 40.8409 26.956C40.3849 26.452 40.1569 25.984 40.1569 25.552V15.112C40.1569 13.768 40.0009 12.748 39.6889 12.052C39.4009 11.332 38.8729 10.972 38.1049 10.972L36.9169 11.188V22.672C36.9169 24.136 37.4089 24.964 38.3929 25.156V25.948L34.7569 28C34.2289 27.784 33.7369 27.436 33.2809 26.956C32.8249 26.452 32.5969 25.984 32.5969 25.552ZM54.8336 0.279999C55.4816 0.279999 56.5016 1.852 57.8936 4.996C59.2856 8.14 59.9816 10.312 59.9816 11.512V22.492C59.9816 23.044 60.1256 23.584 60.4136 24.112C60.7256 24.64 61.1576 24.94 61.7096 25.012V25.804C61.5416 25.828 60.2336 26.56 57.7856 28C57.2336 27.76 56.7296 27.412 56.2736 26.956C55.8416 26.476 55.6256 26.032 55.6256 25.624C53.0576 27.208 51.5576 28 51.1256 28C50.9576 28 50.6336 27.82 50.1536 27.46C49.6976 27.076 49.2296 26.536 48.7496 25.84C48.2936 25.12 48.0656 24.388 48.0656 23.644V10.792C48.0656 10.552 50.0936 9.724 54.1496 8.308C53.2856 6.412 52.5896 5.08 52.0616 4.312C51.5336 3.544 51.0176 3.16 50.5136 3.16H49.3256V2.08C51.9896 0.879999 53.8256 0.279999 54.8336 0.279999ZM54.2216 24.688C54.6776 24.688 55.1456 24.496 55.6256 24.112V11.584C55.6256 11.44 55.5176 11.14 55.3016 10.684C55.1096 10.204 54.9656 9.964 54.8696 9.964C54.1736 9.964 53.4656 10.18 52.7456 10.612L52.3856 10.828V22.024C52.3856 23.8 52.9976 24.688 54.2216 24.688ZM63.5344 22.744V10.792C63.5344 10.624 64.9024 10.036 67.6384 9.028C70.3744 7.996 71.9464 7.48 72.3544 7.48C72.7624 7.48 73.3744 7.972 74.1904 8.956C75.0304 9.94 75.4504 10.828 75.4504 11.62V24.652C75.4504 24.844 74.1304 25.456 71.4904 26.488C68.8744 27.496 67.2664 28 66.6664 28C66.0904 28 65.4184 27.484 64.6504 26.452C63.9064 25.42 63.5344 24.184 63.5344 22.744ZM69.6904 24.688C70.1464 24.688 70.6144 24.496 71.0944 24.112V13.492C71.0944 11.716 70.4824 10.828 69.2584 10.828C68.7784 10.828 68.3104 11.008 67.8544 11.368V22.024C67.8544 23.8 68.4664 24.688 69.6904 24.688ZM77.2743 9.64L81.2343 7.48C81.4023 7.528 81.5943 7.6 81.8103 7.696C82.0503 7.768 82.3623 7.996 82.7463 8.38C83.1543 8.764 83.3583 9.196 83.3583 9.676C83.4783 9.628 84.0423 9.256 85.0503 8.56C86.0823 7.84 86.7423 7.48 87.0303 7.48C87.7983 7.48 88.5183 7.984 89.1903 8.992C89.8623 10 90.1983 10.924 90.1983 11.764V13.528L86.4903 15.616L85.8783 15.112C85.8783 13.096 85.6863 11.944 85.3023 11.656C84.8703 11.344 84.2223 11.188 83.3583 11.188V22.672C83.3583 24.136 83.8503 24.964 84.8343 25.156V25.948L81.1983 28C80.6703 27.784 80.1783 27.436 79.7223 26.956C79.2663 26.452 79.0383 25.984 79.0383 25.552V13.6C79.0383 12.544 78.8463 11.752 78.4623 11.224C78.1023 10.696 77.7063 10.432 77.2743 10.432V9.64Z" fill="#333333"/>
</svg>
